<?xml version="1.0" encoding="UTF-8"?><svg id="Layer_3" xmlns="http://www.w3.org/2000/svg" viewBox="0 0 400 400"><defs><style>.cls-1{fill:#0085f2;}</style></defs><g id="square"><path d="m351.31,180.88v142.28c0,16.07-13.07,29.14-29.14,29.14h-73.89l-28.97,48.19h102.86c42.71,0,77.33-34.62,77.33-77.33V100.7l-48.19,80.18Z"/><path d="m47.69,130.72v-52.89c0-16.07,13.07-29.14,29.14-29.14h203.99L309.79.5H76.83C34.12.5-.5,35.12-.5,77.83v103.97l25.03-26.71,23.17-24.36Z"/><path d="m76.83,352.31c-16.07,0-29.14-13.07-29.14-29.14v-14.3L-.5,263.72v59.45c0,42.71,34.62,77.33,77.33,77.33h68.67l-51.44-48.19h-17.23Z"/></g><polygon id="check" class="cls-1" points="47.97 177.05 4.04 223.95 185.67 394.1 392.5 49.98 337.43 16.88 171.56 292.84 47.97 177.05"/></svg>